<?xml version="1.0" encoding="UTF-8" standalone="no"?>
<!DOCTYPE svg PUBLIC "-//W3C//DTD SVG 1.1//EN"
 "http://www.w3.org/Graphics/SVG/1.1/DTD/svg11.dtd">
<!-- Generated by graphviz version 2.28.0 (20110507.0327)
 -->
<!-- Title: UniSim::NamedObject Pages: 1 -->
<svg width="293pt" height="252pt"
 viewBox="0.00 0.00 293.00 252.00" xmlns="http://www.w3.org/2000/svg" xmlns:xlink="http://www.w3.org/1999/xlink">
<g id="graph1" class="graph" transform="scale(1 1) rotate(0) translate(4 248)">
<title>UniSim::NamedObject</title>
<polygon fill="white" stroke="white" points="-4,5 -4,-248 290,-248 290,5 -4,5"/>
<!-- Node1 -->
<g id="node1" class="node"><title>Node1</title>
<polygon fill="#bfbfbf" stroke="black" points="90.5,-168.5 90.5,-187.5 203.5,-187.5 203.5,-168.5 90.5,-168.5"/>
<text text-anchor="middle" x="147" y="-175.5" font-family="Helvetica,sans-Serif" font-size="10.00">UniSim::NamedObject</text>
</g>
<!-- Node3 -->
<g id="node5" class="node"><title>Node3</title>
<a xlink:href="class_uni_sim_1_1_component.html" target="_top" xlink:title="The Component class provides the basic building block to construct models. ">
<polygon fill="white" stroke="black" points="95,-112.5 95,-131.5 199,-131.5 199,-112.5 95,-112.5"/>
<text text-anchor="middle" x="147" y="-119.5" font-family="Helvetica,sans-Serif" font-size="10.00">UniSim::Component</text>
</a>
</g>
<!-- Node1&#45;&gt;Node3 -->
<g id="edge4" class="edge"><title>Node1&#45;&gt;Node3</title>
<path fill="none" stroke="midnightblue" d="M147,-157.805C147,-148.91 147,-138.78 147,-131.751"/>
<polygon fill="midnightblue" stroke="midnightblue" points="143.5,-158.083 147,-168.083 150.5,-158.083 143.5,-158.083"/>
</g>
<!-- Node2 -->
<g id="node2" class="node"><title>Node2</title>
<polygon fill="white" stroke="#bfbfbf" points="120.5,-224.5 120.5,-243.5 173.5,-243.5 173.5,-224.5 120.5,-224.5"/>
<text text-anchor="middle" x="147" y="-231.5" font-family="Helvetica,sans-Serif" font-size="10.00">QObject</text>
</g>
<!-- Node2&#45;&gt;Node1 -->
<g id="edge2" class="edge"><title>Node2&#45;&gt;Node1</title>
<path fill="none" stroke="midnightblue" d="M147,-213.805C147,-204.91 147,-194.78 147,-187.751"/>
<polygon fill="midnightblue" stroke="midnightblue" points="143.5,-214.083 147,-224.083 150.5,-214.083 143.5,-214.083"/>
</g>
<!-- Node4 -->
<g id="node7" class="node"><title>Node4</title>
<a xlink:href="class_uni_sim_1_1_model.html" target="_top" xlink:title="UniSim::Model">
<polygon fill="white" stroke="black" points="7,-56.5 7,-75.5 87,-75.5 87,-56.5 7,-56.5"/>
<text text-anchor="middle" x="47" y="-63.5" font-family="Helvetica,sans-Serif" font-size="10.00">UniSim::Model</text>
</a>
</g>
<!-- Node3&#45;&gt;Node4 -->
<g id="edge6" class="edge"><title>Node3&#45;&gt;Node4</title>
<path fill="none" stroke="midnightblue" d="M121.912,-107.453C103.451,-97.4835 78.9034,-84.2279 63.0269,-75.6545"/>
<polygon fill="midnightblue" stroke="midnightblue" points="120.471,-110.652 130.933,-112.324 123.797,-104.493 120.471,-110.652"/>
</g>
<!-- Node6 -->
<g id="node11" class="node"><title>Node6</title>
<a xlink:href="class_uni_sim_1_1_output.html" target="_top" xlink:title="UniSim::Output">
<polygon fill="white" stroke="black" points="105.5,-56.5 105.5,-75.5 188.5,-75.5 188.5,-56.5 105.5,-56.5"/>
<text text-anchor="middle" x="147" y="-63.5" font-family="Helvetica,sans-Serif" font-size="10.00">UniSim::Output</text>
</a>
</g>
<!-- Node3&#45;&gt;Node6 -->
<g id="edge10" class="edge"><title>Node3&#45;&gt;Node6</title>
<path fill="none" stroke="midnightblue" d="M147,-101.805C147,-92.9102 147,-82.7798 147,-75.7511"/>
<polygon fill="midnightblue" stroke="midnightblue" points="143.5,-102.083 147,-112.083 150.5,-102.083 143.5,-102.083"/>
</g>
<!-- Node7 -->
<g id="node13" class="node"><title>Node7</title>
<a xlink:href="class_uni_sim_1_1_trace.html" target="_top" xlink:title="UniSim::Trace">
<polygon fill="white" stroke="black" points="207,-56.5 207,-75.5 285,-75.5 285,-56.5 207,-56.5"/>
<text text-anchor="middle" x="246" y="-63.5" font-family="Helvetica,sans-Serif" font-size="10.00">UniSim::Trace</text>
</a>
</g>
<!-- Node3&#45;&gt;Node7 -->
<g id="edge12" class="edge"><title>Node3&#45;&gt;Node7</title>
<path fill="none" stroke="midnightblue" d="M171.837,-107.453C190.114,-97.4835 214.416,-84.2279 230.133,-75.6545"/>
<polygon fill="midnightblue" stroke="midnightblue" points="170.009,-104.463 162.906,-112.324 173.361,-110.608 170.009,-104.463"/>
</g>
<!-- Node5 -->
<g id="node9" class="node"><title>Node5</title>
<a xlink:href="class_uni_sim_1_1_integrator.html" target="_top" xlink:title="UniSim::Integrator">
<polygon fill="white" stroke="black" points="-0.5,-0.5 -0.5,-19.5 94.5,-19.5 94.5,-0.5 -0.5,-0.5"/>
<text text-anchor="middle" x="47" y="-7.5" font-family="Helvetica,sans-Serif" font-size="10.00">UniSim::Integrator</text>
</a>
</g>
<!-- Node4&#45;&gt;Node5 -->
<g id="edge8" class="edge"><title>Node4&#45;&gt;Node5</title>
<path fill="none" stroke="midnightblue" d="M47,-45.8045C47,-36.9102 47,-26.7798 47,-19.7511"/>
<polygon fill="midnightblue" stroke="midnightblue" points="43.5001,-46.083 47,-56.083 50.5001,-46.083 43.5001,-46.083"/>
</g>
</g>
</svg>
