<?xml version="1.0" encoding="UTF-8" standalone="no"?>
<!DOCTYPE svg PUBLIC "-//W3C//DTD SVG 1.1//EN"
 "http://www.w3.org/Graphics/SVG/1.1/DTD/svg11.dtd">
<!-- Generated by graphviz version 2.28.0 (20110507.0327)
 -->
<!-- Title: UniSim::Model Pages: 1 -->
<svg width="120pt" height="252pt"
 viewBox="0.00 0.00 120.00 252.00" xmlns="http://www.w3.org/2000/svg" xmlns:xlink="http://www.w3.org/1999/xlink">
<g id="graph1" class="graph" transform="scale(1 1) rotate(0) translate(4 248)">
<title>UniSim::Model</title>
<polygon fill="white" stroke="white" points="-4,5 -4,-248 117,-248 117,5 -4,5"/>
<!-- Node1 -->
<g id="node1" class="node"><title>Node1</title>
<polygon fill="#bfbfbf" stroke="black" points="16,-56.5 16,-75.5 96,-75.5 96,-56.5 16,-56.5"/>
<text text-anchor="middle" x="56" y="-63.5" font-family="Helvetica,sans-Serif" font-size="10.00">UniSim::Model</text>
</g>
<!-- Node5 -->
<g id="node9" class="node"><title>Node5</title>
<a xlink:href="class_uni_sim_1_1_integrator.html" target="_top" xlink:title="UniSim::Integrator">
<polygon fill="white" stroke="black" points="8.5,-0.5 8.5,-19.5 103.5,-19.5 103.5,-0.5 8.5,-0.5"/>
<text text-anchor="middle" x="56" y="-7.5" font-family="Helvetica,sans-Serif" font-size="10.00">UniSim::Integrator</text>
</a>
</g>
<!-- Node1&#45;&gt;Node5 -->
<g id="edge8" class="edge"><title>Node1&#45;&gt;Node5</title>
<path fill="none" stroke="midnightblue" d="M56,-45.8045C56,-36.9102 56,-26.7798 56,-19.7511"/>
<polygon fill="midnightblue" stroke="midnightblue" points="52.5001,-46.083 56,-56.083 59.5001,-46.083 52.5001,-46.083"/>
</g>
<!-- Node2 -->
<g id="node2" class="node"><title>Node2</title>
<a xlink:href="class_uni_sim_1_1_component.html" target="_top" xlink:title="The Component class provides the basic building block to construct models. ">
<polygon fill="white" stroke="black" points="4,-112.5 4,-131.5 108,-131.5 108,-112.5 4,-112.5"/>
<text text-anchor="middle" x="56" y="-119.5" font-family="Helvetica,sans-Serif" font-size="10.00">UniSim::Component</text>
</a>
</g>
<!-- Node2&#45;&gt;Node1 -->
<g id="edge2" class="edge"><title>Node2&#45;&gt;Node1</title>
<path fill="none" stroke="midnightblue" d="M56,-101.805C56,-92.9102 56,-82.7798 56,-75.7511"/>
<polygon fill="midnightblue" stroke="midnightblue" points="52.5001,-102.083 56,-112.083 59.5001,-102.083 52.5001,-102.083"/>
</g>
<!-- Node3 -->
<g id="node4" class="node"><title>Node3</title>
<a xlink:href="class_uni_sim_1_1_named_object.html" target="_top" xlink:title="UniSim::NamedObject">
<polygon fill="white" stroke="black" points="-0.5,-168.5 -0.5,-187.5 112.5,-187.5 112.5,-168.5 -0.5,-168.5"/>
<text text-anchor="middle" x="56" y="-175.5" font-family="Helvetica,sans-Serif" font-size="10.00">UniSim::NamedObject</text>
</a>
</g>
<!-- Node3&#45;&gt;Node2 -->
<g id="edge4" class="edge"><title>Node3&#45;&gt;Node2</title>
<path fill="none" stroke="midnightblue" d="M56,-157.805C56,-148.91 56,-138.78 56,-131.751"/>
<polygon fill="midnightblue" stroke="midnightblue" points="52.5001,-158.083 56,-168.083 59.5001,-158.083 52.5001,-158.083"/>
</g>
<!-- Node4 -->
<g id="node6" class="node"><title>Node4</title>
<polygon fill="white" stroke="#bfbfbf" points="29.5,-224.5 29.5,-243.5 82.5,-243.5 82.5,-224.5 29.5,-224.5"/>
<text text-anchor="middle" x="56" y="-231.5" font-family="Helvetica,sans-Serif" font-size="10.00">QObject</text>
</g>
<!-- Node4&#45;&gt;Node3 -->
<g id="edge6" class="edge"><title>Node4&#45;&gt;Node3</title>
<path fill="none" stroke="midnightblue" d="M56,-213.805C56,-204.91 56,-194.78 56,-187.751"/>
<polygon fill="midnightblue" stroke="midnightblue" points="52.5001,-214.083 56,-224.083 59.5001,-214.083 52.5001,-214.083"/>
</g>
</g>
</svg>
