<?xml version="1.0" encoding="UTF-8" standalone="no"?>
<!DOCTYPE svg PUBLIC "-//W3C//DTD SVG 1.1//EN"
 "http://www.w3.org/Graphics/SVG/1.1/DTD/svg11.dtd">
<!-- Generated by graphviz version 2.28.0 (20110507.0327)
 -->
<!-- Title: UniSim::ParameterBase Pages: 1 -->
<svg width="299pt" height="84pt"
 viewBox="0.00 0.00 299.00 84.00" xmlns="http://www.w3.org/2000/svg" xmlns:xlink="http://www.w3.org/1999/xlink">
<g id="graph1" class="graph" transform="scale(1 1) rotate(0) translate(4 80)">
<title>UniSim::ParameterBase</title>
<polygon fill="white" stroke="white" points="-4,5 -4,-80 296,-80 296,5 -4,5"/>
<!-- Node1 -->
<g id="node1" class="node"><title>Node1</title>
<polygon fill="#bfbfbf" stroke="black" points="77,-56.5 77,-75.5 199,-75.5 199,-56.5 77,-56.5"/>
<text text-anchor="middle" x="138" y="-63.5" font-family="Helvetica,sans-Serif" font-size="10.00">UniSim::ParameterBase</text>
</g>
<!-- Node2 -->
<g id="node3" class="node"><title>Node2</title>
<a xlink:href="class_uni_sim_1_1_parameter.html" target="_top" xlink:title="UniSim::Parameter\&lt; T \&gt;">
<polygon fill="white" stroke="black" points="0,-0.5 0,-19.5 122,-19.5 122,-0.5 0,-0.5"/>
<text text-anchor="middle" x="61" y="-7.5" font-family="Helvetica,sans-Serif" font-size="10.00">UniSim::Parameter&lt; T &gt;</text>
</a>
</g>
<!-- Node1&#45;&gt;Node2 -->
<g id="edge2" class="edge"><title>Node1&#45;&gt;Node2</title>
<path fill="none" stroke="midnightblue" d="M117.099,-50.3422C103.089,-40.5169 85.117,-27.9132 73.3407,-19.6545"/>
<polygon fill="midnightblue" stroke="midnightblue" points="115.432,-53.4477 125.629,-56.324 119.451,-47.7166 115.432,-53.4477"/>
</g>
<!-- Node3 -->
<g id="node5" class="node"><title>Node3</title>
<a xlink:href="class_uni_sim_1_1_parameter_vector.html" target="_top" xlink:title="UniSim::ParameterVector\&lt; T \&gt;">
<polygon fill="white" stroke="black" points="140.5,-0.5 140.5,-19.5 291.5,-19.5 291.5,-0.5 140.5,-0.5"/>
<text text-anchor="middle" x="216" y="-7.5" font-family="Helvetica,sans-Serif" font-size="10.00">UniSim::ParameterVector&lt; T &gt;</text>
</a>
</g>
<!-- Node1&#45;&gt;Node3 -->
<g id="edge4" class="edge"><title>Node1&#45;&gt;Node3</title>
<path fill="none" stroke="midnightblue" d="M158.768,-50.6221C173.017,-40.7574 191.456,-27.9919 203.499,-19.6545"/>
<polygon fill="midnightblue" stroke="midnightblue" points="156.762,-47.7541 150.532,-56.324 160.746,-53.5095 156.762,-47.7541"/>
</g>
</g>
</svg>
