<?xml version="1.0" encoding="UTF-8" standalone="no"?>
<!DOCTYPE svg PUBLIC "-//W3C//DTD SVG 1.1//EN"
 "http://www.w3.org/Graphics/SVG/1.1/DTD/svg11.dtd">
<!-- Generated by graphviz version 2.28.0 (20110507.0327)
 -->
<!-- Title: UniSim::ParameterVector&lt; T &gt; Pages: 1 -->
<svg width="289pt" height="196pt"
 viewBox="0.00 0.00 289.00 196.00" xmlns="http://www.w3.org/2000/svg" xmlns:xlink="http://www.w3.org/1999/xlink">
<g id="graph1" class="graph" transform="scale(1 1) rotate(0) translate(4 192)">
<title>UniSim::ParameterVector&lt; T &gt;</title>
<polygon fill="white" stroke="white" points="-4,5 -4,-192 286,-192 286,5 -4,5"/>
<!-- Node1 -->
<g id="node1" class="node"><title>Node1</title>
<polygon fill="#bfbfbf" stroke="black" points="69.5,-0.5 69.5,-19.5 220.5,-19.5 220.5,-0.5 69.5,-0.5"/>
<text text-anchor="middle" x="145" y="-7.5" font-family="Helvetica,sans-Serif" font-size="10.00">UniSim::ParameterVector&lt; T &gt;</text>
</g>
<!-- Node2 -->
<g id="node2" class="node"><title>Node2</title>
<a xlink:href="class_uni_sim_1_1_variable_vector.html" target="_top" xlink:title="UniSim::VariableVector\&lt; T \&gt;">
<polygon fill="white" stroke="black" points="-0.5,-56.5 -0.5,-75.5 140.5,-75.5 140.5,-56.5 -0.5,-56.5"/>
<text text-anchor="middle" x="70" y="-63.5" font-family="Helvetica,sans-Serif" font-size="10.00">UniSim::VariableVector&lt; T &gt;</text>
</a>
</g>
<!-- Node2&#45;&gt;Node1 -->
<g id="edge2" class="edge"><title>Node2&#45;&gt;Node1</title>
<path fill="none" stroke="midnightblue" d="M90.3051,-50.3804C103.861,-40.6204 121.242,-28.1057 132.731,-19.8339"/>
<polygon fill="midnightblue" stroke="midnightblue" points="88.1203,-47.6405 82.05,-56.324 92.2105,-53.3213 88.1203,-47.6405"/>
</g>
<!-- Node3 -->
<g id="node4" class="node"><title>Node3</title>
<a xlink:href="class_uni_sim_1_1_variable_base.html" target="_top" xlink:title="UniSim::VariableBase">
<polygon fill="white" stroke="black" points="14,-112.5 14,-131.5 126,-131.5 126,-112.5 14,-112.5"/>
<text text-anchor="middle" x="70" y="-119.5" font-family="Helvetica,sans-Serif" font-size="10.00">UniSim::VariableBase</text>
</a>
</g>
<!-- Node3&#45;&gt;Node2 -->
<g id="edge4" class="edge"><title>Node3&#45;&gt;Node2</title>
<path fill="none" stroke="midnightblue" d="M70,-101.805C70,-92.9102 70,-82.7798 70,-75.7511"/>
<polygon fill="midnightblue" stroke="midnightblue" points="66.5001,-102.083 70,-112.083 73.5001,-102.083 66.5001,-102.083"/>
</g>
<!-- Node4 -->
<g id="node6" class="node"><title>Node4</title>
<polygon fill="white" stroke="#bfbfbf" points="43.5,-168.5 43.5,-187.5 96.5,-187.5 96.5,-168.5 43.5,-168.5"/>
<text text-anchor="middle" x="70" y="-175.5" font-family="Helvetica,sans-Serif" font-size="10.00">QObject</text>
</g>
<!-- Node4&#45;&gt;Node3 -->
<g id="edge6" class="edge"><title>Node4&#45;&gt;Node3</title>
<path fill="none" stroke="midnightblue" d="M70,-157.805C70,-148.91 70,-138.78 70,-131.751"/>
<polygon fill="midnightblue" stroke="midnightblue" points="66.5001,-158.083 70,-168.083 73.5001,-158.083 66.5001,-158.083"/>
</g>
<!-- Node5 -->
<g id="node8" class="node"><title>Node5</title>
<a xlink:href="class_uni_sim_1_1_parameter_base.html" target="_top" xlink:title="UniSim::ParameterBase">
<polygon fill="white" stroke="black" points="159,-56.5 159,-75.5 281,-75.5 281,-56.5 159,-56.5"/>
<text text-anchor="middle" x="220" y="-63.5" font-family="Helvetica,sans-Serif" font-size="10.00">UniSim::ParameterBase</text>
</a>
</g>
<!-- Node5&#45;&gt;Node1 -->
<g id="edge8" class="edge"><title>Node5&#45;&gt;Node1</title>
<path fill="none" stroke="midnightblue" d="M199.695,-50.3804C186.139,-40.6204 168.758,-28.1057 157.269,-19.8339"/>
<polygon fill="midnightblue" stroke="midnightblue" points="197.79,-53.3213 207.95,-56.324 201.88,-47.6405 197.79,-53.3213"/>
</g>
</g>
</svg>
