<?xml version="1.0" encoding="UTF-8" standalone="no"?>
<!DOCTYPE svg PUBLIC "-//W3C//DTD SVG 1.1//EN"
 "http://www.w3.org/Graphics/SVG/1.1/DTD/svg11.dtd">
<!-- Generated by graphviz version 2.28.0 (20110507.0327)
 -->
<!-- Title: UniSim::VariableBase Pages: 1 -->
<svg width="299pt" height="196pt"
 viewBox="0.00 0.00 299.00 196.00" xmlns="http://www.w3.org/2000/svg" xmlns:xlink="http://www.w3.org/1999/xlink">
<g id="graph1" class="graph" transform="scale(1 1) rotate(0) translate(4 192)">
<title>UniSim::VariableBase</title>
<polygon fill="white" stroke="white" points="-4,5 -4,-192 296,-192 296,5 -4,5"/>
<!-- Node1 -->
<g id="node1" class="node"><title>Node1</title>
<polygon fill="#bfbfbf" stroke="black" points="79,-112.5 79,-131.5 191,-131.5 191,-112.5 79,-112.5"/>
<text text-anchor="middle" x="135" y="-119.5" font-family="Helvetica,sans-Serif" font-size="10.00">UniSim::VariableBase</text>
</g>
<!-- Node3 -->
<g id="node5" class="node"><title>Node3</title>
<a xlink:href="class_uni_sim_1_1_variable.html" target="_top" xlink:title="UniSim::Variable\&lt; T \&gt;">
<polygon fill="white" stroke="black" points="6.5,-56.5 6.5,-75.5 119.5,-75.5 119.5,-56.5 6.5,-56.5"/>
<text text-anchor="middle" x="63" y="-63.5" font-family="Helvetica,sans-Serif" font-size="10.00">UniSim::Variable&lt; T &gt;</text>
</a>
</g>
<!-- Node1&#45;&gt;Node3 -->
<g id="edge4" class="edge"><title>Node1&#45;&gt;Node3</title>
<path fill="none" stroke="midnightblue" d="M115.134,-106.101C102.177,-96.3824 85.7026,-84.0269 74.7785,-75.8339"/>
<polygon fill="midnightblue" stroke="midnightblue" points="113.332,-109.124 123.432,-112.324 117.532,-103.524 113.332,-109.124"/>
</g>
<!-- Node5 -->
<g id="node9" class="node"><title>Node5</title>
<a xlink:href="class_uni_sim_1_1_variable_vector.html" target="_top" xlink:title="UniSim::VariableVector\&lt; T \&gt;">
<polygon fill="white" stroke="black" points="142.5,-56.5 142.5,-75.5 283.5,-75.5 283.5,-56.5 142.5,-56.5"/>
<text text-anchor="middle" x="213" y="-63.5" font-family="Helvetica,sans-Serif" font-size="10.00">UniSim::VariableVector&lt; T &gt;</text>
</a>
</g>
<!-- Node1&#45;&gt;Node5 -->
<g id="edge8" class="edge"><title>Node1&#45;&gt;Node5</title>
<path fill="none" stroke="midnightblue" d="M155.768,-106.622C170.017,-96.7574 188.456,-83.9919 200.499,-75.6545"/>
<polygon fill="midnightblue" stroke="midnightblue" points="153.762,-103.754 147.532,-112.324 157.746,-109.51 153.762,-103.754"/>
</g>
<!-- Node2 -->
<g id="node2" class="node"><title>Node2</title>
<polygon fill="white" stroke="#bfbfbf" points="108.5,-168.5 108.5,-187.5 161.5,-187.5 161.5,-168.5 108.5,-168.5"/>
<text text-anchor="middle" x="135" y="-175.5" font-family="Helvetica,sans-Serif" font-size="10.00">QObject</text>
</g>
<!-- Node2&#45;&gt;Node1 -->
<g id="edge2" class="edge"><title>Node2&#45;&gt;Node1</title>
<path fill="none" stroke="midnightblue" d="M135,-157.805C135,-148.91 135,-138.78 135,-131.751"/>
<polygon fill="midnightblue" stroke="midnightblue" points="131.5,-158.083 135,-168.083 138.5,-158.083 131.5,-158.083"/>
</g>
<!-- Node4 -->
<g id="node7" class="node"><title>Node4</title>
<a xlink:href="class_uni_sim_1_1_parameter.html" target="_top" xlink:title="UniSim::Parameter\&lt; T \&gt;">
<polygon fill="white" stroke="black" points="0,-0.5 0,-19.5 122,-19.5 122,-0.5 0,-0.5"/>
<text text-anchor="middle" x="61" y="-7.5" font-family="Helvetica,sans-Serif" font-size="10.00">UniSim::Parameter&lt; T &gt;</text>
</a>
</g>
<!-- Node3&#45;&gt;Node4 -->
<g id="edge6" class="edge"><title>Node3&#45;&gt;Node4</title>
<path fill="none" stroke="midnightblue" d="M62.2891,-45.8045C61.9596,-36.9102 61.5844,-26.7798 61.3241,-19.7511"/>
<polygon fill="midnightblue" stroke="midnightblue" points="58.8019,-46.2194 62.6697,-56.083 65.7971,-45.9603 58.8019,-46.2194"/>
</g>
<!-- Node6 -->
<g id="node11" class="node"><title>Node6</title>
<a xlink:href="class_uni_sim_1_1_parameter_vector.html" target="_top" xlink:title="UniSim::ParameterVector\&lt; T \&gt;">
<polygon fill="white" stroke="black" points="140.5,-0.5 140.5,-19.5 291.5,-19.5 291.5,-0.5 140.5,-0.5"/>
<text text-anchor="middle" x="216" y="-7.5" font-family="Helvetica,sans-Serif" font-size="10.00">UniSim::ParameterVector&lt; T &gt;</text>
</a>
</g>
<!-- Node5&#45;&gt;Node6 -->
<g id="edge10" class="edge"><title>Node5&#45;&gt;Node6</title>
<path fill="none" stroke="midnightblue" d="M214.066,-45.8045C214.561,-36.9102 215.123,-26.7798 215.514,-19.7511"/>
<polygon fill="midnightblue" stroke="midnightblue" points="210.556,-45.9042 213.495,-56.083 217.545,-46.2926 210.556,-45.9042"/>
</g>
</g>
</svg>
