<?xml version="1.0" encoding="UTF-8" standalone="no"?>
<!DOCTYPE svg PUBLIC "-//W3C//DTD SVG 1.1//EN"
 "http://www.w3.org/Graphics/SVG/1.1/DTD/svg11.dtd">
<!-- Generated by graphviz version 2.28.0 (20110507.0327)
 -->
<!-- Title: UniSim::Trace Pages: 1 -->
<svg width="230pt" height="196pt"
 viewBox="0.00 0.00 230.00 196.00" xmlns="http://www.w3.org/2000/svg" xmlns:xlink="http://www.w3.org/1999/xlink">
<g id="graph1" class="graph" transform="scale(1 1) rotate(0) translate(4 192)">
<title>UniSim::Trace</title>
<polygon fill="white" stroke="white" points="-4,5 -4,-192 227,-192 227,5 -4,5"/>
<!-- Node1 -->
<g id="node1" class="node"><title>Node1</title>
<polygon fill="#bfbfbf" stroke="black" points="76,-0.5 76,-19.5 154,-19.5 154,-0.5 76,-0.5"/>
<text text-anchor="middle" x="115" y="-7.5" font-family="Helvetica,sans-Serif" font-size="10.00">UniSim::Trace</text>
</g>
<!-- Node2 -->
<g id="node2" class="node"><title>Node2</title>
<a xlink:href="class_uni_sim_1_1_component.html" target="_top" xlink:title="The Component class provides the basic building block to construct models. ">
<polygon fill="white" stroke="black" points="4,-56.5 4,-75.5 108,-75.5 108,-56.5 4,-56.5"/>
<text text-anchor="middle" x="56" y="-63.5" font-family="Helvetica,sans-Serif" font-size="10.00">UniSim::Component</text>
</a>
</g>
<!-- Node2&#45;&gt;Node1 -->
<g id="edge2" class="edge"><title>Node2&#45;&gt;Node1</title>
<path fill="none" stroke="midnightblue" d="M72.8945,-49.5372C83.4145,-39.9087 96.5687,-27.8694 105.348,-19.8339"/>
<polygon fill="midnightblue" stroke="midnightblue" points="70.4931,-46.9905 65.4794,-56.324 75.2192,-52.1542 70.4931,-46.9905"/>
</g>
<!-- Node3 -->
<g id="node4" class="node"><title>Node3</title>
<a xlink:href="class_uni_sim_1_1_named_object.html" target="_top" xlink:title="UniSim::NamedObject">
<polygon fill="white" stroke="black" points="-0.5,-112.5 -0.5,-131.5 112.5,-131.5 112.5,-112.5 -0.5,-112.5"/>
<text text-anchor="middle" x="56" y="-119.5" font-family="Helvetica,sans-Serif" font-size="10.00">UniSim::NamedObject</text>
</a>
</g>
<!-- Node3&#45;&gt;Node2 -->
<g id="edge4" class="edge"><title>Node3&#45;&gt;Node2</title>
<path fill="none" stroke="midnightblue" d="M56,-101.805C56,-92.9102 56,-82.7798 56,-75.7511"/>
<polygon fill="midnightblue" stroke="midnightblue" points="52.5001,-102.083 56,-112.083 59.5001,-102.083 52.5001,-102.083"/>
</g>
<!-- Node4 -->
<g id="node6" class="node"><title>Node4</title>
<polygon fill="white" stroke="#bfbfbf" points="29.5,-168.5 29.5,-187.5 82.5,-187.5 82.5,-168.5 29.5,-168.5"/>
<text text-anchor="middle" x="56" y="-175.5" font-family="Helvetica,sans-Serif" font-size="10.00">QObject</text>
</g>
<!-- Node4&#45;&gt;Node3 -->
<g id="edge6" class="edge"><title>Node4&#45;&gt;Node3</title>
<path fill="none" stroke="midnightblue" d="M56,-157.805C56,-148.91 56,-138.78 56,-131.751"/>
<polygon fill="midnightblue" stroke="midnightblue" points="52.5001,-158.083 56,-168.083 59.5001,-158.083 52.5001,-158.083"/>
</g>
<!-- Node5 -->
<g id="node8" class="node"><title>Node5</title>
<a xlink:href="class_uni_sim_1_1_attributes.html" target="_top" xlink:title="UniSim::Attributes">
<polygon fill="white" stroke="black" points="126,-56.5 126,-75.5 222,-75.5 222,-56.5 126,-56.5"/>
<text text-anchor="middle" x="174" y="-63.5" font-family="Helvetica,sans-Serif" font-size="10.00">UniSim::Attributes</text>
</a>
</g>
<!-- Node5&#45;&gt;Node1 -->
<g id="edge8" class="edge"><title>Node5&#45;&gt;Node1</title>
<path fill="none" stroke="midnightblue" d="M157.105,-49.5372C146.585,-39.9087 133.431,-27.8694 124.652,-19.8339"/>
<polygon fill="midnightblue" stroke="midnightblue" points="154.781,-52.1542 164.521,-56.324 159.507,-46.9905 154.781,-52.1542"/>
</g>
</g>
</svg>
