<?xml version="1.0" encoding="UTF-8" standalone="no"?>
<!DOCTYPE svg PUBLIC "-//W3C//DTD SVG 1.1//EN"
 "http://www.w3.org/Graphics/SVG/1.1/DTD/svg11.dtd">
<!-- Generated by graphviz version 2.28.0 (20110507.0327)
 -->
<!-- Title: UniSim::Parameter&lt; T &gt; Pages: 1 -->
<svg width="261pt" height="196pt"
 viewBox="0.00 0.00 261.00 196.00" xmlns="http://www.w3.org/2000/svg" xmlns:xlink="http://www.w3.org/1999/xlink">
<g id="graph1" class="graph" transform="scale(1 1) rotate(0) translate(4 192)">
<title>UniSim::Parameter&lt; T &gt;</title>
<polygon fill="white" stroke="white" points="-4,5 -4,-192 258,-192 258,5 -4,5"/>
<!-- Node1 -->
<g id="node1" class="node"><title>Node1</title>
<polygon fill="#bfbfbf" stroke="black" points="63,-0.5 63,-19.5 185,-19.5 185,-0.5 63,-0.5"/>
<text text-anchor="middle" x="124" y="-7.5" font-family="Helvetica,sans-Serif" font-size="10.00">UniSim::Parameter&lt; T &gt;</text>
</g>
<!-- Node2 -->
<g id="node2" class="node"><title>Node2</title>
<a xlink:href="class_uni_sim_1_1_variable.html" target="_top" xlink:title="UniSim::Variable\&lt; T \&gt;">
<polygon fill="white" stroke="black" points="-0.5,-56.5 -0.5,-75.5 112.5,-75.5 112.5,-56.5 -0.5,-56.5"/>
<text text-anchor="middle" x="56" y="-63.5" font-family="Helvetica,sans-Serif" font-size="10.00">UniSim::Variable&lt; T &gt;</text>
</a>
</g>
<!-- Node2&#45;&gt;Node1 -->
<g id="edge2" class="edge"><title>Node2&#45;&gt;Node1</title>
<path fill="none" stroke="midnightblue" d="M74.762,-50.1008C86.9999,-40.3824 102.559,-28.0269 112.876,-19.8339"/>
<polygon fill="midnightblue" stroke="midnightblue" points="72.5799,-47.3642 66.9254,-56.324 76.9331,-52.846 72.5799,-47.3642"/>
</g>
<!-- Node3 -->
<g id="node4" class="node"><title>Node3</title>
<a xlink:href="class_uni_sim_1_1_variable_base.html" target="_top" xlink:title="UniSim::VariableBase">
<polygon fill="white" stroke="black" points="0,-112.5 0,-131.5 112,-131.5 112,-112.5 0,-112.5"/>
<text text-anchor="middle" x="56" y="-119.5" font-family="Helvetica,sans-Serif" font-size="10.00">UniSim::VariableBase</text>
</a>
</g>
<!-- Node3&#45;&gt;Node2 -->
<g id="edge4" class="edge"><title>Node3&#45;&gt;Node2</title>
<path fill="none" stroke="midnightblue" d="M56,-101.805C56,-92.9102 56,-82.7798 56,-75.7511"/>
<polygon fill="midnightblue" stroke="midnightblue" points="52.5001,-102.083 56,-112.083 59.5001,-102.083 52.5001,-102.083"/>
</g>
<!-- Node4 -->
<g id="node6" class="node"><title>Node4</title>
<polygon fill="white" stroke="#bfbfbf" points="29.5,-168.5 29.5,-187.5 82.5,-187.5 82.5,-168.5 29.5,-168.5"/>
<text text-anchor="middle" x="56" y="-175.5" font-family="Helvetica,sans-Serif" font-size="10.00">QObject</text>
</g>
<!-- Node4&#45;&gt;Node3 -->
<g id="edge6" class="edge"><title>Node4&#45;&gt;Node3</title>
<path fill="none" stroke="midnightblue" d="M56,-157.805C56,-148.91 56,-138.78 56,-131.751"/>
<polygon fill="midnightblue" stroke="midnightblue" points="52.5001,-158.083 56,-168.083 59.5001,-158.083 52.5001,-158.083"/>
</g>
<!-- Node5 -->
<g id="node8" class="node"><title>Node5</title>
<a xlink:href="class_uni_sim_1_1_parameter_base.html" target="_top" xlink:title="UniSim::ParameterBase">
<polygon fill="white" stroke="black" points="131,-56.5 131,-75.5 253,-75.5 253,-56.5 131,-56.5"/>
<text text-anchor="middle" x="192" y="-63.5" font-family="Helvetica,sans-Serif" font-size="10.00">UniSim::ParameterBase</text>
</a>
</g>
<!-- Node5&#45;&gt;Node1 -->
<g id="edge8" class="edge"><title>Node5&#45;&gt;Node1</title>
<path fill="none" stroke="midnightblue" d="M173.238,-50.1008C161,-40.3824 145.441,-28.0269 135.124,-19.8339"/>
<polygon fill="midnightblue" stroke="midnightblue" points="171.067,-52.846 181.075,-56.324 175.42,-47.3642 171.067,-52.846"/>
</g>
</g>
</svg>
