<?xml version="1.0" encoding="UTF-8" standalone="no"?>
<!DOCTYPE svg PUBLIC "-//W3C//DTD SVG 1.1//EN"
 "http://www.w3.org/Graphics/SVG/1.1/DTD/svg11.dtd">
<!-- Generated by graphviz version 2.28.0 (20110507.0327)
 -->
<!-- Title: Graphical Class Hierarchy Pages: 1 -->
<svg width="710pt" height="389pt"
 viewBox="0.00 0.00 710.00 389.00" xmlns="http://www.w3.org/2000/svg" xmlns:xlink="http://www.w3.org/1999/xlink">
<g id="graph1" class="graph" transform="scale(1 1) rotate(0) translate(4 385)">
<title>Graphical Class Hierarchy</title>
<polygon fill="white" stroke="white" points="-4,5 -4,-385 707,-385 707,5 -4,5"/>
<!-- Node1 -->
<g id="node1" class="node"><title>Node1</title>
<a xlink:href="class_uni_sim_1_1_attributes.html" target="_top" xlink:title="UniSim::Attributes">
<polygon fill="white" stroke="black" points="263,-247.5 263,-266.5 359,-266.5 359,-247.5 263,-247.5"/>
<text text-anchor="middle" x="311" y="-254.5" font-family="Helvetica,sans-Serif" font-size="10.00">UniSim::Attributes</text>
</a>
</g>
<!-- Node2 -->
<g id="node3" class="node"><title>Node2</title>
<a xlink:href="class_uni_sim_1_1_trace.html" target="_top" xlink:title="UniSim::Trace">
<polygon fill="white" stroke="black" points="455,-247.5 455,-266.5 533,-266.5 533,-247.5 455,-247.5"/>
<text text-anchor="middle" x="494" y="-254.5" font-family="Helvetica,sans-Serif" font-size="10.00">UniSim::Trace</text>
</a>
</g>
<!-- Node1&#45;&gt;Node2 -->
<g id="edge2" class="edge"><title>Node1&#45;&gt;Node2</title>
<path fill="none" stroke="midnightblue" d="M369.151,-257C397.151,-257 430.102,-257 454.975,-257"/>
<polygon fill="midnightblue" stroke="midnightblue" points="369.083,-253.5 359.083,-257 369.083,-260.5 369.083,-253.5"/>
</g>
<!-- Node3 -->
<g id="node4" class="node"><title>Node3</title>
<a xlink:href="class_uni_sim_1_1_parameter_base.html" target="_top" xlink:title="UniSim::ParameterBase">
<polygon fill="white" stroke="black" points="250,-38.5 250,-57.5 372,-57.5 372,-38.5 250,-38.5"/>
<text text-anchor="middle" x="311" y="-45.5" font-family="Helvetica,sans-Serif" font-size="10.00">UniSim::ParameterBase</text>
</a>
</g>
<!-- Node4 -->
<g id="node6" class="node"><title>Node4</title>
<a xlink:href="class_uni_sim_1_1_parameter.html" target="_top" xlink:title="UniSim::Parameter\&lt; T \&gt;">
<polygon fill="white" stroke="black" points="433,-57.5 433,-76.5 555,-76.5 555,-57.5 433,-57.5"/>
<text text-anchor="middle" x="494" y="-64.5" font-family="Helvetica,sans-Serif" font-size="10.00">UniSim::Parameter&lt; T &gt;</text>
</a>
</g>
<!-- Node3&#45;&gt;Node4 -->
<g id="edge4" class="edge"><title>Node3&#45;&gt;Node4</title>
<path fill="none" stroke="midnightblue" d="M382.269,-55.3763C398.968,-57.1292 416.634,-58.9837 432.835,-60.6843"/>
<polygon fill="midnightblue" stroke="midnightblue" points="382.33,-51.8635 372.019,-54.3003 381.599,-58.8253 382.33,-51.8635"/>
</g>
<!-- Node5 -->
<g id="node8" class="node"><title>Node5</title>
<a xlink:href="class_uni_sim_1_1_parameter_vector.html" target="_top" xlink:title="UniSim::ParameterVector\&lt; T \&gt;">
<polygon fill="white" stroke="black" points="418.5,-19.5 418.5,-38.5 569.5,-38.5 569.5,-19.5 418.5,-19.5"/>
<text text-anchor="middle" x="494" y="-26.5" font-family="Helvetica,sans-Serif" font-size="10.00">UniSim::ParameterVector&lt; T &gt;</text>
</a>
</g>
<!-- Node3&#45;&gt;Node5 -->
<g id="edge6" class="edge"><title>Node3&#45;&gt;Node5</title>
<path fill="none" stroke="midnightblue" d="M382.259,-40.6247C394.079,-39.384 406.384,-38.0923 418.311,-36.8403"/>
<polygon fill="midnightblue" stroke="midnightblue" points="381.599,-37.1747 372.019,-41.6997 382.33,-44.1365 381.599,-37.1747"/>
</g>
<!-- Node6 -->
<g id="node9" class="node"><title>Node6</title>
<polygon fill="white" stroke="#bfbfbf" points="0.5,-209.5 0.5,-228.5 53.5,-228.5 53.5,-209.5 0.5,-209.5"/>
<text text-anchor="middle" x="27" y="-216.5" font-family="Helvetica,sans-Serif" font-size="10.00">QObject</text>
</g>
<!-- Node7 -->
<g id="node11" class="node"><title>Node7</title>
<a xlink:href="class_uni_sim_1_1_authors.html" target="_top" xlink:title="UniSim::Authors">
<polygon fill="white" stroke="black" points="103,-361.5 103,-380.5 191,-380.5 191,-361.5 103,-361.5"/>
<text text-anchor="middle" x="147" y="-368.5" font-family="Helvetica,sans-Serif" font-size="10.00">UniSim::Authors</text>
</a>
</g>
<!-- Node6&#45;&gt;Node7 -->
<g id="edge8" class="edge"><title>Node6&#45;&gt;Node7</title>
<path fill="none" stroke="midnightblue" d="M32.0081,-238.644C38.8927,-267.493 55.6692,-321.225 90,-352 94.3574,-355.906 99.5507,-359.015 104.992,-361.487"/>
<polygon fill="midnightblue" stroke="midnightblue" points="35.3581,-237.584 29.7714,-228.582 28.5249,-239.103 35.3581,-237.584"/>
</g>
<!-- Node8 -->
<g id="node13" class="node"><title>Node8</title>
<a xlink:href="class_uni_sim_1_1_clock.html" target="_top" xlink:title="UniSim::Clock">
<polygon fill="white" stroke="black" points="107.5,-323.5 107.5,-342.5 186.5,-342.5 186.5,-323.5 107.5,-323.5"/>
<text text-anchor="middle" x="147" y="-330.5" font-family="Helvetica,sans-Serif" font-size="10.00">UniSim::Clock</text>
</a>
</g>
<!-- Node6&#45;&gt;Node8 -->
<g id="edge10" class="edge"><title>Node6&#45;&gt;Node8</title>
<path fill="none" stroke="midnightblue" d="M35.7475,-237.931C45.4194,-259.317 63.9237,-293.769 90,-314 95.1103,-317.965 101.097,-321.129 107.219,-323.646"/>
<polygon fill="midnightblue" stroke="midnightblue" points="38.8953,-236.392 31.7146,-228.601 32.47,-239.169 38.8953,-236.392"/>
</g>
<!-- Node9 -->
<g id="node15" class="node"><title>Node9</title>
<a xlink:href="class_uni_sim_1_1_data_grid.html" target="_top" xlink:title="UniSim::DataGrid">
<polygon fill="white" stroke="black" points="101,-285.5 101,-304.5 193,-304.5 193,-285.5 101,-285.5"/>
<text text-anchor="middle" x="147" y="-292.5" font-family="Helvetica,sans-Serif" font-size="10.00">UniSim::DataGrid</text>
</a>
</g>
<!-- Node6&#45;&gt;Node9 -->
<g id="edge12" class="edge"><title>Node6&#45;&gt;Node9</title>
<path fill="none" stroke="midnightblue" d="M43.1288,-236.349C54.8415,-248.861 72.0489,-265.355 90,-276 96.2698,-279.718 103.369,-282.835 110.356,-285.399"/>
<polygon fill="midnightblue" stroke="midnightblue" points="45.5881,-233.851 36.2728,-228.804 40.4073,-238.559 45.5881,-233.851"/>
</g>
<!-- Node10 -->
<g id="node17" class="node"><title>Node10</title>
<a xlink:href="class_uni_sim_1_1_file_locations.html" target="_top" xlink:title="UniSim::FileLocations">
<polygon fill="white" stroke="black" points="91,-247.5 91,-266.5 203,-266.5 203,-247.5 91,-247.5"/>
<text text-anchor="middle" x="147" y="-254.5" font-family="Helvetica,sans-Serif" font-size="10.00">UniSim::FileLocations</text>
</a>
</g>
<!-- Node6&#45;&gt;Node10 -->
<g id="edge14" class="edge"><title>Node6&#45;&gt;Node10</title>
<path fill="none" stroke="midnightblue" d="M63.1491,-230.319C80.0684,-235.768 100.134,-242.23 116.281,-247.429"/>
<polygon fill="midnightblue" stroke="midnightblue" points="64.1957,-226.979 53.6042,-227.245 62.05,-233.642 64.1957,-226.979"/>
</g>
<!-- Node11 -->
<g id="node19" class="node"><title>Node11</title>
<a xlink:href="class_uni_sim_1_1_named_object.html" target="_top" xlink:title="UniSim::NamedObject">
<polygon fill="white" stroke="black" points="90.5,-209.5 90.5,-228.5 203.5,-228.5 203.5,-209.5 90.5,-209.5"/>
<text text-anchor="middle" x="147" y="-216.5" font-family="Helvetica,sans-Serif" font-size="10.00">UniSim::NamedObject</text>
</a>
</g>
<!-- Node6&#45;&gt;Node11 -->
<g id="edge16" class="edge"><title>Node6&#45;&gt;Node11</title>
<path fill="none" stroke="midnightblue" d="M63.7924,-219C72.2025,-219 81.361,-219 90.4121,-219"/>
<polygon fill="midnightblue" stroke="midnightblue" points="63.6043,-215.5 53.6042,-219 63.6042,-222.5 63.6043,-215.5"/>
</g>
<!-- Node16 -->
<g id="node30" class="node"><title>Node16</title>
<a xlink:href="class_uni_sim_1_1_object_pool.html" target="_top" xlink:title="UniSim::ObjectPool">
<polygon fill="white" stroke="black" points="96,-171.5 96,-190.5 198,-190.5 198,-171.5 96,-171.5"/>
<text text-anchor="middle" x="147" y="-178.5" font-family="Helvetica,sans-Serif" font-size="10.00">UniSim::ObjectPool</text>
</a>
</g>
<!-- Node6&#45;&gt;Node16 -->
<g id="edge28" class="edge"><title>Node6&#45;&gt;Node16</title>
<path fill="none" stroke="midnightblue" d="M63.1491,-207.681C80.0684,-202.232 100.134,-195.77 116.281,-190.571"/>
<polygon fill="midnightblue" stroke="midnightblue" points="62.05,-204.358 53.6042,-210.755 64.1957,-211.021 62.05,-204.358"/>
</g>
<!-- Node17 -->
<g id="node32" class="node"><title>Node17</title>
<a xlink:href="class_uni_sim_1_1_product_base.html" target="_top" xlink:title="UniSim::ProductBase">
<polygon fill="white" stroke="black" points="92,-133.5 92,-152.5 202,-152.5 202,-133.5 92,-133.5"/>
<text text-anchor="middle" x="147" y="-140.5" font-family="Helvetica,sans-Serif" font-size="10.00">UniSim::ProductBase</text>
</a>
</g>
<!-- Node6&#45;&gt;Node17 -->
<g id="edge30" class="edge"><title>Node6&#45;&gt;Node17</title>
<path fill="none" stroke="midnightblue" d="M43.1288,-201.651C54.8415,-189.139 72.0489,-172.645 90,-162 96.2698,-158.282 103.369,-155.165 110.356,-152.601"/>
<polygon fill="midnightblue" stroke="midnightblue" points="40.4073,-199.441 36.2728,-209.196 45.5881,-204.149 40.4073,-199.441"/>
</g>
<!-- Node19 -->
<g id="node36" class="node"><title>Node19</title>
<a xlink:href="class_uni_sim_1_1_random.html" target="_top" xlink:title="UniSim::Random">
<polygon fill="white" stroke="black" points="102,-95.5 102,-114.5 192,-114.5 192,-95.5 102,-95.5"/>
<text text-anchor="middle" x="147" y="-102.5" font-family="Helvetica,sans-Serif" font-size="10.00">UniSim::Random</text>
</a>
</g>
<!-- Node6&#45;&gt;Node19 -->
<g id="edge34" class="edge"><title>Node6&#45;&gt;Node19</title>
<path fill="none" stroke="midnightblue" d="M35.7475,-200.069C45.4194,-178.683 63.9237,-144.231 90,-124 94.948,-120.161 100.718,-117.073 106.636,-114.596"/>
<polygon fill="midnightblue" stroke="midnightblue" points="32.47,-198.831 31.7146,-209.399 38.8953,-201.608 32.47,-198.831"/>
</g>
<!-- Node20 -->
<g id="node38" class="node"><title>Node20</title>
<a xlink:href="class_uni_sim_1_1_variable_base.html" target="_top" xlink:title="UniSim::VariableBase">
<polygon fill="white" stroke="black" points="91,-57.5 91,-76.5 203,-76.5 203,-57.5 91,-57.5"/>
<text text-anchor="middle" x="147" y="-64.5" font-family="Helvetica,sans-Serif" font-size="10.00">UniSim::VariableBase</text>
</a>
</g>
<!-- Node6&#45;&gt;Node20 -->
<g id="edge36" class="edge"><title>Node6&#45;&gt;Node20</title>
<path fill="none" stroke="midnightblue" d="M32.0081,-199.356C38.8927,-170.507 55.6692,-116.775 90,-86 94.3574,-82.0939 99.5507,-78.9852 104.992,-76.5126"/>
<polygon fill="midnightblue" stroke="midnightblue" points="28.5249,-198.897 29.7714,-209.418 35.3581,-200.416 28.5249,-198.897"/>
</g>
<!-- Node12 -->
<g id="node21" class="node"><title>Node12</title>
<a xlink:href="class_uni_sim_1_1_component.html" target="_top" xlink:title="The Component class provides the basic building block to construct models. ">
<polygon fill="white" stroke="black" points="259,-209.5 259,-228.5 363,-228.5 363,-209.5 259,-209.5"/>
<text text-anchor="middle" x="311" y="-216.5" font-family="Helvetica,sans-Serif" font-size="10.00">UniSim::Component</text>
</a>
</g>
<!-- Node11&#45;&gt;Node12 -->
<g id="edge18" class="edge"><title>Node11&#45;&gt;Node12</title>
<path fill="none" stroke="midnightblue" d="M213.956,-219C228.897,-219 244.546,-219 258.772,-219"/>
<polygon fill="midnightblue" stroke="midnightblue" points="213.751,-215.5 203.751,-219 213.751,-222.5 213.751,-215.5"/>
</g>
<!-- Node12&#45;&gt;Node2 -->
<g id="edge26" class="edge"><title>Node12&#45;&gt;Node2</title>
<path fill="none" stroke="midnightblue" d="M367.828,-230.721C396.11,-236.658 429.715,-243.714 454.981,-249.018"/>
<polygon fill="midnightblue" stroke="midnightblue" points="368.18,-227.218 357.674,-228.589 366.741,-234.069 368.18,-227.218"/>
</g>
<!-- Node13 -->
<g id="node23" class="node"><title>Node13</title>
<a xlink:href="class_uni_sim_1_1_model.html" target="_top" xlink:title="UniSim::Model">
<polygon fill="white" stroke="black" points="454,-209.5 454,-228.5 534,-228.5 534,-209.5 454,-209.5"/>
<text text-anchor="middle" x="494" y="-216.5" font-family="Helvetica,sans-Serif" font-size="10.00">UniSim::Model</text>
</a>
</g>
<!-- Node12&#45;&gt;Node13 -->
<g id="edge20" class="edge"><title>Node12&#45;&gt;Node13</title>
<path fill="none" stroke="midnightblue" d="M373.732,-219C400.268,-219 430.488,-219 453.868,-219"/>
<polygon fill="midnightblue" stroke="midnightblue" points="373.383,-215.5 363.383,-219 373.383,-222.5 373.383,-215.5"/>
</g>
<!-- Node15 -->
<g id="node27" class="node"><title>Node15</title>
<a xlink:href="class_uni_sim_1_1_output.html" target="_top" xlink:title="UniSim::Output">
<polygon fill="white" stroke="black" points="452.5,-171.5 452.5,-190.5 535.5,-190.5 535.5,-171.5 452.5,-171.5"/>
<text text-anchor="middle" x="494" y="-178.5" font-family="Helvetica,sans-Serif" font-size="10.00">UniSim::Output</text>
</a>
</g>
<!-- Node12&#45;&gt;Node15 -->
<g id="edge24" class="edge"><title>Node12&#45;&gt;Node15</title>
<path fill="none" stroke="midnightblue" d="M367.501,-207.348C394.857,-201.605 427.255,-194.803 452.281,-189.549"/>
<polygon fill="midnightblue" stroke="midnightblue" points="366.741,-203.931 357.674,-209.411 368.18,-210.782 366.741,-203.931"/>
</g>
<!-- Node14 -->
<g id="node25" class="node"><title>Node14</title>
<a xlink:href="class_uni_sim_1_1_integrator.html" target="_top" xlink:title="UniSim::Integrator">
<polygon fill="white" stroke="black" points="606.5,-209.5 606.5,-228.5 701.5,-228.5 701.5,-209.5 606.5,-209.5"/>
<text text-anchor="middle" x="654" y="-216.5" font-family="Helvetica,sans-Serif" font-size="10.00">UniSim::Integrator</text>
</a>
</g>
<!-- Node13&#45;&gt;Node14 -->
<g id="edge22" class="edge"><title>Node13&#45;&gt;Node14</title>
<path fill="none" stroke="midnightblue" d="M544.115,-219C563.925,-219 586.675,-219 606.241,-219"/>
<polygon fill="midnightblue" stroke="midnightblue" points="544.056,-215.5 534.056,-219 544.056,-222.5 544.056,-215.5"/>
</g>
<!-- Node18 -->
<g id="node34" class="node"><title>Node18</title>
<a xlink:href="class_uni_sim_1_1_product.html" target="_top" xlink:title="UniSim::Product\&lt; T \&gt;">
<polygon fill="white" stroke="black" points="255.5,-133.5 255.5,-152.5 366.5,-152.5 366.5,-133.5 255.5,-133.5"/>
<text text-anchor="middle" x="311" y="-140.5" font-family="Helvetica,sans-Serif" font-size="10.00">UniSim::Product&lt; T &gt;</text>
</a>
</g>
<!-- Node17&#45;&gt;Node18 -->
<g id="edge32" class="edge"><title>Node17&#45;&gt;Node18</title>
<path fill="none" stroke="midnightblue" d="M212.589,-143C226.797,-143 241.708,-143 255.473,-143"/>
<polygon fill="midnightblue" stroke="midnightblue" points="212.394,-139.5 202.394,-143 212.394,-146.5 212.394,-139.5"/>
</g>
<!-- Node21 -->
<g id="node40" class="node"><title>Node21</title>
<a xlink:href="class_uni_sim_1_1_variable.html" target="_top" xlink:title="UniSim::Variable\&lt; T \&gt;">
<polygon fill="white" stroke="black" points="254.5,-76.5 254.5,-95.5 367.5,-95.5 367.5,-76.5 254.5,-76.5"/>
<text text-anchor="middle" x="311" y="-83.5" font-family="Helvetica,sans-Serif" font-size="10.00">UniSim::Variable&lt; T &gt;</text>
</a>
</g>
<!-- Node20&#45;&gt;Node21 -->
<g id="edge38" class="edge"><title>Node20&#45;&gt;Node21</title>
<path fill="none" stroke="midnightblue" d="M213.522,-74.6847C227.08,-76.2748 241.238,-77.9354 254.401,-79.4791"/>
<polygon fill="midnightblue" stroke="midnightblue" points="213.638,-71.1743 203.298,-73.4856 212.822,-78.1267 213.638,-71.1743"/>
</g>
<!-- Node22 -->
<g id="node43" class="node"><title>Node22</title>
<a xlink:href="class_uni_sim_1_1_variable_vector.html" target="_top" xlink:title="UniSim::VariableVector\&lt; T \&gt;">
<polygon fill="white" stroke="black" points="240.5,-0.5 240.5,-19.5 381.5,-19.5 381.5,-0.5 240.5,-0.5"/>
<text text-anchor="middle" x="311" y="-7.5" font-family="Helvetica,sans-Serif" font-size="10.00">UniSim::VariableVector&lt; T &gt;</text>
</a>
</g>
<!-- Node20&#45;&gt;Node22 -->
<g id="edge42" class="edge"><title>Node20&#45;&gt;Node22</title>
<path fill="none" stroke="midnightblue" d="M178.193,-53.3954C195.972,-45.6708 219.021,-36.1476 240,-29 250.013,-25.5887 260.991,-22.3704 271.223,-19.5857"/>
<polygon fill="midnightblue" stroke="midnightblue" points="176.652,-50.2493 168.904,-57.4754 179.467,-56.6584 176.652,-50.2493"/>
</g>
<!-- Node21&#45;&gt;Node4 -->
<g id="edge40" class="edge"><title>Node21&#45;&gt;Node4</title>
<path fill="none" stroke="midnightblue" d="M377.86,-79.0865C395.778,-77.2057 415.091,-75.1783 432.684,-73.3315"/>
<polygon fill="midnightblue" stroke="midnightblue" points="377.363,-75.6194 367.783,-80.1443 378.094,-82.5811 377.363,-75.6194"/>
</g>
<!-- Node22&#45;&gt;Node5 -->
<g id="edge44" class="edge"><title>Node22&#45;&gt;Node5</title>
<path fill="none" stroke="midnightblue" d="M391.905,-18.3878C400.65,-19.3058 409.529,-20.2378 418.209,-21.149"/>
<polygon fill="midnightblue" stroke="midnightblue" points="392.031,-14.8819 381.72,-17.3187 391.3,-21.8437 392.031,-14.8819"/>
</g>
</g>
</svg>
