<?xml version="1.0" encoding="UTF-8" standalone="no"?>
<!DOCTYPE svg PUBLIC "-//W3C//DTD SVG 1.1//EN"
 "http://www.w3.org/Graphics/SVG/1.1/DTD/svg11.dtd">
<!-- Generated by graphviz version 2.28.0 (20110507.0327)
 -->
<!-- Title: Graphical Class Hierarchy Pages: 1 -->
<svg width="210pt" height="66pt"
 viewBox="0.00 0.00 210.00 66.00" xmlns="http://www.w3.org/2000/svg" xmlns:xlink="http://www.w3.org/1999/xlink">
<g id="graph1" class="graph" transform="scale(1 1) rotate(0) translate(4 62)">
<title>Graphical Class Hierarchy</title>
<polygon fill="white" stroke="white" points="-4,5 -4,-62 207,-62 207,5 -4,5"/>
<!-- Node1 -->
<g id="node1" class="node"><title>Node1</title>
<polygon fill="white" stroke="#bfbfbf" points="0.5,-19.5 0.5,-38.5 43.5,-38.5 43.5,-19.5 0.5,-19.5"/>
<text text-anchor="middle" x="22" y="-26.5" font-family="Helvetica,sans-Serif" font-size="10.00">QMap</text>
</g>
<!-- Node2 -->
<g id="node3" class="node"><title>Node2</title>
<a xlink:href="class_uni_sim_1_1_identifier_map.html" target="_top" xlink:title="UniSim::IdentifierMap">
<polygon fill="white" stroke="black" points="86.5,-38.5 86.5,-57.5 195.5,-57.5 195.5,-38.5 86.5,-38.5"/>
<text text-anchor="middle" x="141" y="-45.5" font-family="Helvetica,sans-Serif" font-size="10.00">UniSim::IdentifierMap</text>
</a>
</g>
<!-- Node1&#45;&gt;Node2 -->
<g id="edge2" class="edge"><title>Node1&#45;&gt;Node2</title>
<path fill="none" stroke="midnightblue" d="M53.5468,-33.9606C63.6153,-35.5957 75.1281,-37.4652 86.3968,-39.2952"/>
<polygon fill="midnightblue" stroke="midnightblue" points="54.0797,-30.5014 43.6479,-32.3531 52.9576,-37.4108 54.0797,-30.5014"/>
</g>
<!-- Node3 -->
<g id="node5" class="node"><title>Node3</title>
<a xlink:href="class_uni_sim_1_1_string_map.html" target="_top" xlink:title="UniSim::StringMap\&lt; T \&gt;">
<polygon fill="white" stroke="black" points="80,-0.5 80,-19.5 202,-19.5 202,-0.5 80,-0.5"/>
<text text-anchor="middle" x="141" y="-7.5" font-family="Helvetica,sans-Serif" font-size="10.00">UniSim::StringMap&lt; T &gt;</text>
</a>
</g>
<!-- Node1&#45;&gt;Node3 -->
<g id="edge4" class="edge"><title>Node1&#45;&gt;Node3</title>
<path fill="none" stroke="midnightblue" d="M53.5259,-24.0428C62.1089,-22.649 71.7427,-21.0845 81.3808,-19.5194"/>
<polygon fill="midnightblue" stroke="midnightblue" points="52.9576,-20.5892 43.6479,-25.6469 54.0797,-27.4986 52.9576,-20.5892"/>
</g>
</g>
</svg>
